<?xml version="1.0" encoding="UTF-8"?>
<svg xmlns="http://www.w3.org/2000/svg" viewBox="0 0 705 819.02">
  <defs>
    <style>
      .cls-1 {
        fill: #fcf0ec;
      }

      .cls-2 {
        fill: #ff914d;
      }

      .cls-3 {
        fill: #040403;
      }
    </style>
  </defs>
  <g id="BG">
    <rect class="cls-2" y=".02" width="705" height="819"/>
  </g>
  <g id="REF">
    <g>
      <path class="cls-3" d="M529.12,11.64c1.82-3,5.59-7.57,7.88-11.62h92c-35.44,15.53-83.11,24.3-82.49,73.01,18.79-25.34,33.42-47.94,64.97-59.03L656,.02h49v33c-41.21,18.12-102.03,9.53-133.01,45.49,40.87-20.53,87.94-22.3,133.01-21.49v50c-33.51,22.71-75.43,8.58-112,3.01,32.13,26.35,80.26,10.38,112,37.99v45c-23.56,11.39-54.26-6.94-75.67-17.83-19.5-9.93-37.95-23.78-57.34-32.66,31.74,43.43,87.85,53.02,133.01,76.49v33c-32.99-.06-66.02.09-99,0-32.99-15.39-40.84-51.13-52.99-82-3.07,27.14,9.02,55.52,2.82,82.08l-11.84-.08c-5.32-.06-10.68-.02-16,0-23.08.08-35.22.08-70.55.08l60.55-119.07c-1.92-2-28.79,41.31-30.8,44.69-10.08,16.98-18.5,49.49-39.2,52.3.67-29.26-.08-58.72,0-88l49-29.99-49,6.29v-5.3c0-2.64,0-5.36,0-8,0-15.65.04-31.35,0-47,26.38-6.97,44.15,21.62,69,19.99C492.63,58.12,439.62,41.8,458,.02h57c4.36-1.15,2.37,59.69,8.99,51.99.73-1.63-1.18-13.58-1.39-14.71-1.69-8.94,3.09-20,6.53-25.66Z"/>
      <path class="cls-1" d="M448,.02c.04,19.32-.05,38.68,0,58,.04,15.65,0,39.35,0,55-59.99,9.59-92.17-37.56-72.01-94.99C333.94,51.42,279.3,62.83,260,.02h188Z"/>
      <path class="cls-1" d="M231,.02c-31.39,69.59-112.16,41.99-163.99,15.01C103.28,62.2,32.41,76.35,0,84.02V.02h231Z"/>
      <path class="cls-1" d="M0,112.02c43.89,10.89,131.98,42.05,69.18,95.92-18.2,15.61-46.12,31.69-69.18,37.08V112.02Z"/>
      <path class="cls-1" d="M0,248.02c55.67.61,125.44,9.69,156,61.99l-156,1.01v-63Z"/>
      <path class="cls-1" d="M448,113.02v5c0,7.99.02,16.01,0,24-.08,29.28.67,58.74,0,88-.06,2.81,0,11.62,0,22.08-26.32-16.07-66.73-41.97-66.59-76.74.12-29.79,42.06-53.56,66.59-62.34Z"/>
      <g>
        <path class="cls-1" d="M606,252.02c32.98.09,66.01-.06,99,0v36c-18.98,23.42-60.01,48-60.06,81.48-.05,29.73,35.84,63.5,60.06,76.52v373h-205c-20.08-20.24-37.71-42.28-52-67-6.91-8.34-3.13-23-.94-35.56l-98.05-77.44,62.99,179.99h-11l-72.49-160.01-13.51,160.01h-10l-2.51-148.01-61.49,148.01h-12l36.5-135.03-87.5,135.03h-13l66.99-135-121.99,135h-16l99.99-137.51-1.5-.51L20,819.02h-12l173.99-160.99L0,735.02v-17l158.01-87.51L0,668.02v-16l134.01-49.51L0,615.02v-16l113.01-21.5L0,559.02v-19l116.01,6.51L0,493.02v-20l107.01,34.51L0,431.02v-21l113.02,65.49L0,329.02v-17c2.31-.65,5.12,1.03,7,1l120.99,132-58.17-135.03c8.99,0,20.27.39,29.25.39l66.43,117.64c.5-34.55-9.26-71.9-9.51-105.99,0-.4-1.25.72-1-2-.22-2.63,1.15-7.37,1-10.01,6.72.04,12.26-.08,18.49-.02l21.01,125.05,21.5-123.01-27.88-2.37c15.04-33.18,34.74-44.18,66.47-21.2,4.71,3.41,19.45,17.9,18.42,23.56-.67,0-1.33,0-2,0h-32l-14.51,136.99,71.5-137.99c-2.32-.01-4.67-.01-7,0-20.15-99.56,101.87-74.31,158-55v44h15.5c18.8,0,42.56,18.44,62.07,7.58,5.91-4.38,11.25-10.31,12.45-18.06,2.47-15.98-4.3-23.86-10.02-37.52M319.01,311.52,260.51,465.03l146.49-153.01M429,312.02l-147,177.99,165-74.99.31-105.04-18.31,2.04ZM448,587.02c.06.41,3.63,5,2.5,8,21.82-42.11,64.22-28.1,100.93-35.07,34.14-6.48,37.96-46.77,22.89-72.68-24.92-42.85-87.42-51.86-127.32-72.25.1,8.34.31,8.84.31,18.38l-134.29,74.12,134.98-25.5c0,3.14,0,11.29,0,16l-119.01,34.5,119.01-3.5c.03,5.8-.01,17.51,0,24l-96,16.02,96,17.98ZM448,693.02v-75.5l-84.02-1.99,84.02,77.49Z"/>
        <polygon class="cls-3" points="0 735.02 181.99 658.02 8 819.02 0 819.02 0 735.02"/>
        <path class="cls-3" d="M448,819.02h-36l-62.99-179.99,98.05,77.44"/>
        <polygon class="cls-3" points="401 819.02 315 819.02 328.51 659 401 819.02"/>
        <polygon class="cls-3" points="20 819.02 192.49 681 193.99 681.51 94 819.02 20 819.02"/>
        <polygon class="cls-3" points="241 819.02 302.49 671 305 819.02 241 819.02"/>
        <polygon class="cls-3" points="0 329.02 113.02 475.5 0 410.02 0 329.02"/>
        <polygon class="cls-3" points="0 668.02 158.01 630.5 0 718.02 0 668.02"/>
        <polygon class="cls-3" points="165 819.02 110 819.02 231.99 684.02 165 819.02"/>
        <polygon class="cls-3" points="178 819.02 265.5 683.99 229 819.02 178 819.02"/>
        <polygon class="cls-3" points="0 493.02 116.01 546.53 0 540.02 0 493.02"/>
        <polygon class="cls-3" points="0 615.02 134.01 602.5 0 652.02 0 615.02"/>
        <polygon class="cls-3" points="0 431.02 107.01 507.53 0 473.02 0 431.02"/>
        <polygon class="cls-3" points="0 559.02 113.01 577.52 0 599.02 0 559.02"/>
        <polygon class="cls-3" points="429.13 309.98 447.31 309.98 447 415.02 282 490 429.13 309.98"/>
        <path class="cls-3" d="M408.95,309.98l-148.44,155.05,58.49-153.51c25.73-.42,64.48-1.34,89.94-1.54Z"/>
        <path class="cls-3" d="M69.82,309.98l58.17,135.03L0,311c23.27-.37,46.5-1,69.82-1.02Z"/>
        <path class="cls-3" d="M297,311.02l-71.5,137.99,14.72-139.02"/>
        <path class="cls-3" d="M447.31,433.4c0,13.62.68,34.63.69,48.62l-134.98,25.5,134.29-74.12Z"/>
        <polygon class="cls-3" points="448 693.02 363.98 615.53 448 617.52 448 693.02"/>
        <path class="cls-3" d="M156,322.02c.25,34.09,10,71.44,9.51,105.99l-66.43-117.64c18.32,0,38.61-.47,56.93-.37"/>
        <path class="cls-3" d="M217.23,310.21l-21.73,124.82-21.01-125.05c13.79.12,28.65.24,42.74.23Z"/>
        <path class="cls-3" d="M448,498.02c0,10.32-.05,20.68,0,31l-119.01,3.5,119.01-34.5Z"/>
        <path class="cls-3" d="M448,553.02c.02,9.88,0,24.85,0,34l-96-17.98,96-16.02Z"/>
      </g>
    </g>
  </g>
</svg>